<?xml version="1.0" encoding="utf-8"?>
<!-- Generator: Adobe Illustrator 23.0.4, SVG Export Plug-In . SVG Version: 6.00 Build 0)  -->
<svg version="1.1" id="Capa_1" xmlns="http://www.w3.org/2000/svg" xmlns:xlink="http://www.w3.org/1999/xlink" x="0px" y="0px"
	 viewBox="0 0 512 512" style="enable-background:new 0 0 512 512;" xml:space="preserve">
<style type="text/css">
	.st0{fill:#7386F5;}
	.st1{fill:#566BF5;}
</style>
<g>
	<path class="st0" d="M396.4,140.4c-49,0-97.9,37.6-128.6,66.9l-2.8,9.1l-9,2.6c-28.7-29.7-84.5-78.6-140.4-78.6
		C51.9,140.4,0,192.2,0,256s51.9,115.6,115.6,115.6c49,0,97.9-37.6,128.6-66.9l2.7-9.4l9.1-2.3c28.7,29.7,84.5,78.6,140.4,78.6
		c63.8,0,115.6-51.9,115.6-115.6S460.1,140.4,396.4,140.4L396.4,140.4z M115.6,328.5c-46.1,0-61.6-31.8-65.6-64.4
		c-0.3-2.6-0.5-5.3-0.5-8.1c0-36.4,29.6-66.1,66.1-66.1c36.2,0,81.5,39.2,107.2,66.1l-2.8,11.2C193.7,293.4,148.8,328.5,115.6,328.5
		z M396.4,322.1c-36.2,0-81.5-39.2-107.2-66.1c9.1-27,71-69.7,107.2-69.7c40.6,0,61.7,29.1,65.6,61.8c0.3,2.6,0.5,5.2,0.5,7.9
		C462.5,292.4,432.8,322.1,396.4,322.1z"/>
	<g>
		<path class="st1" d="M396.4,173.4c-29.1,0-64.8,21.4-94.9,47c-6.9,5.8-17.1,5.3-23-1.5c-3.4-3.8-7.1-7.9-10.7-11.6
			c-4.3,4.1-8.2,8-11.8,11.7c-0.6-0.6,16.9,18.5,19.2,21.3c3.4,4.2,8.3,9.6,14,15.7c3-3.1,6.3-6.4,9.7-9.8
			c26.4-25.6,65.4-56.3,97.4-56.3c33.6,0,61.5,25.6,65.6,58.2c0.3-2.7,0.5-5.8,0.5-8.6C462.5,203.1,432.8,173.4,396.4,173.4
			L396.4,173.4z"/>
		<path class="st1" d="M115.6,338.6c29.1,0,64.8-21.4,94.9-47c6.9-5.8,17.1-5.3,23,1.5c3.4,3.8,7.1,7.9,10.7,11.6
			c4.3-4.1,8.2-8,11.8-11.7c0.6,0.6-16.9-18.5-19.2-21.3c-3.4-4.2-8.3-9.6-14-15.7c-3,3.1-6.3,6.4-9.7,9.8
			c-26.4,25.6-65.4,56.3-97.4,56.3c-33.6,0-61.5-25.5-65.6-58c-0.3,2.7-0.5,5.6-0.5,8.4C49.5,308.9,79.2,338.6,115.6,338.6
			L115.6,338.6z"/>
	</g>
</g>
</svg>
