<?xml version="1.0" encoding="iso-8859-1"?>
<!-- Generator: Adobe Illustrator 19.0.0, SVG Export Plug-In . SVG Version: 6.00 Build 0)  -->
<svg version="1.1" id="Capa_1" xmlns="http://www.w3.org/2000/svg" xmlns:xlink="http://www.w3.org/1999/xlink" x="0px" y="0px"
	 viewBox="0 0 468.3 468.3" style="enable-background:new 0 0 468.3 468.3;" xml:space="preserve">
<path style="fill:#3A556A;" d="M234.15,360.686c-90.329,0-163.554,40.221-163.554,89.835s73.226-20.364,163.554-20.364
	c90.328,0,163.554,69.979,163.554,20.364S324.478,360.686,234.15,360.686z"/>
<ellipse style="fill:#D5D6DB;" cx="234.15" cy="190.593" rx="190.564" ry="190.564"/>
<path style="fill:#64798A;" d="M234.149,68.612c-67.25,0-121.96,54.712-121.96,121.962s54.71,121.962,121.96,121.962
	c67.25,0,121.962-54.712,121.962-121.962S301.398,68.612,234.149,68.612z"/>
<path style="fill:#E1E6E9;" d="M234.149,107.917c-45.575,0-82.654,37.079-82.654,82.657c0,45.576,37.08,82.657,82.654,82.657
	c45.577,0,82.656-37.081,82.656-82.657C316.805,144.996,279.726,107.917,234.149,107.917z"/>
<circle style="fill:#3A556A;" cx="234.15" cy="190.572" r="50.819"/>
<path style="fill:#E56353;" d="M234.15,16.441c-8.42,0-15.245,6.825-15.245,15.244c0,8.421,6.825,15.245,15.245,15.245
	c8.42,0,15.245-6.825,15.245-15.245C249.395,23.266,242.57,16.441,234.15,16.441z"/>
<g>
	<path style="fill:#EBF0F3;" d="M260.169,155.004c-10.777,0-19.514,8.736-19.514,19.515c0,10.777,8.737,19.514,19.514,19.514
		s19.514-8.736,19.514-19.514C279.684,163.74,270.947,155.004,260.169,155.004z"/>
	<path style="fill:#EBF0F3;" d="M205.404,190.972c-9.413,0-17.043,7.631-17.043,17.043c0,9.413,7.631,17.044,17.043,17.044
		c9.413,0,17.043-7.631,17.043-17.044C222.448,198.603,214.817,190.972,205.404,190.972z"/>
</g>
<g>
</g>
<g>
</g>
<g>
</g>
<g>
</g>
<g>
</g>
<g>
</g>
<g>
</g>
<g>
</g>
<g>
</g>
<g>
</g>
<g>
</g>
<g>
</g>
<g>
</g>
<g>
</g>
<g>
</g>
</svg>
