<?xml version="1.0" encoding="utf-8"?>
<!-- Generator: Adobe Illustrator 23.0.4, SVG Export Plug-In . SVG Version: 6.00 Build 0)  -->
<svg version="1.1" id="Layer_1" xmlns="http://www.w3.org/2000/svg" xmlns:xlink="http://www.w3.org/1999/xlink" x="0px" y="0px"
	 viewBox="0 0 512 512" style="enable-background:new 0 0 512 512;" xml:space="preserve">
<style type="text/css">
	.st0{fill:#EF5A9D;}
	.st1{fill:#E43D91;}
	.st2{fill:#F06EA9;}
	.st3{fill:#BDBDBD;}
	.st4{fill:#A8A7A8;}
	.st5{fill:#FEDE3A;}
	.st6{fill:#F7CB15;}
</style>
<g>
	<path class="st0" d="M253.6,101.7c0-39.3-29.1-71.2-65-71.2c-25.8,0-48.1,16.5-58.6,40.4c-2.2,5.1-7,8.1-12.2,7.7
		c-7.2-0.6-14.7,0.1-22.4,2.6c-24.5,7.7-43,30.5-46.6,58.2c-1.5,11.5-0.4,22.4,2.6,32.4c2.1,7.1-0.9,14.9-7.3,17.4
		c-24.9,10-42.7,36.1-42.7,66.8c0,30.8,17.8,56.9,42.7,66.9c6.4,2.5,9.4,10.4,7.3,17.4c-3,10-4.1,21-2.6,32.4
		c3.6,27.6,22.2,50.5,46.6,58.2c7.7,2.4,15.3,3.1,22.4,2.6c5.1-0.4,9.9,2.6,12.2,7.7c10.5,23.9,32.8,40.4,58.6,40.4
		c35.9,0,65-31.9,65-71.2c0-0.5-0.1-0.9-0.1-1.4c0-0.8,0.1-1.5,0.1-2.3V105.4c0-0.8,0-1.5-0.1-2.3
		C253.6,102.7,253.6,102.2,253.6,101.7L253.6,101.7z"/>
	<path class="st1" d="M253.6,101.7c0-39.3-29.1-71.2-65-71.2c-4.2,0-8.3,0.5-12.3,1.3c30,6.3,52.7,35.2,52.7,69.9
		c0,0.5-0.1,0.9-0.1,1.4c0,0.8,0.1,1.5,0.1,2.3v301.1c0,0.8,0,1.5-0.1,2.3c0,0.5,0.1,0.9,0.1,1.4c0,34.7-22.7,63.6-52.7,69.9
		c4,0.8,8.1,1.3,12.3,1.3c35.9,0,65-31.9,65-71.2c0-0.5-0.1-0.9-0.1-1.4c0-0.8,0.1-1.5,0.1-2.3V105.4c0-0.8,0-1.5-0.1-2.3
		C253.6,102.7,253.6,102.2,253.6,101.7L253.6,101.7z"/>
	<path class="st2" d="M49.2,350.4c-1.1,7.1-1.3,14.6-0.3,22.3c0.1,0.5,0.2,1,0.3,1.5c0.5-3.5,1.3-7,2.3-10.3
		C52.9,359.1,51.9,354,49.2,350.4L49.2,350.4z"/>
	<path class="st2" d="M253.6,101.7c0-39.3-29.1-71.2-65-71.2c-25.8,0-48.1,16.5-58.6,40.4c-2.2,5.1-7,8.1-12.2,7.7
		c-7.2-0.6-14.7,0.1-22.4,2.6c-24.5,7.7-43,30.5-46.6,58.2c-1,7.6-0.8,15.1,0.3,22.1c4.1-26.9,22.4-49.1,46.4-56.6
		c7.7-2.4,15.3-3.1,22.4-2.6c5.1,0.4,9.9-2.6,12.2-7.7c10.5-23.9,32.8-40.4,58.6-40.4c35.9,0,65,31.9,65,71.2v-19.9
		c0-0.8,0-1.5-0.1-2.3C253.6,102.7,253.6,102.2,253.6,101.7L253.6,101.7z"/>
	<path class="st2" d="M253.6,129.1v-3.7c0,0.5-0.1,0.9-0.1,1.4C253.6,127.6,253.6,128.3,253.6,129.1z"/>
	<path class="st1" d="M188.7,418.1c-25.8,0-48.1-16.5-58.6-40.4c-2.2-5.1-7-8.1-12.2-7.7c-7.2,0.6-14.7-0.1-22.4-2.6
		c-24.5-7.7-43-30.5-46.6-58.2c-1.5-11.5-0.4-22.4,2.6-32.4c2.1-7.1-0.9-14.9-7.3-17.4c-15.7-6.3-28.5-19-35.9-35.2
		c-4.3,9.5-6.8,20.3-6.8,31.7c0,30.8,17.8,56.9,42.7,66.9c6.4,2.5,9.4,10.4,7.3,17.4c-3,10-4.1,21-2.6,32.4
		c3.6,27.6,22.2,50.5,46.6,58.2c7.7,2.4,15.3,3.1,22.4,2.6c5.1-0.4,9.9,2.6,12.2,7.7c10.5,23.9,32.8,40.4,58.6,40.4
		c35.9,0,65-31.9,65-71.2c0-0.5-0.1-0.9-0.1-1.4c0-0.8,0.1-1.5,0.1-2.3v-59.6C253.6,386.3,224.5,418.1,188.7,418.1L188.7,418.1z"/>
	<path class="st1" d="M253.6,346.9v-3.7c0,0.8,0,1.5-0.1,2.3C253.6,346,253.6,346.4,253.6,346.9z"/>
	<path class="st2" d="M229.1,338.7c-0.2,5.4-4.3,9.6-9.2,9.6c-0.2,0-0.3,0-0.5,0c-9.6-0.5-18.7-3.9-26.5-9.5
		c-24.7,13.8-43.4,36.9-53.1,65.5c-4.7,13.8-6.9,28.2-6.9,42.5c-1-1.8-2-3.7-2.8-5.7c-2.2-5.1-7-8.1-12.2-7.7c-1,0.1-2,0.1-3,0.1
		c1-12.3,3.5-24.4,7.5-36.3c10.5-31.2,30.4-56.8,56.4-73.2c-7-10.7-10.5-23.5-9.9-36.9c0.3-5.6,4.5-9.9,9.7-9.6
		c5.1,0.3,9,5,8.8,10.6c-0.5,10.1,2.7,19.9,8.9,27.4c6.2,7.5,14.7,11.9,24,12.5C225.4,328.3,229.3,333.1,229.1,338.7L229.1,338.7z
		 M126.6,323.1c4.9,0,9-4.2,9.2-9.6c0.3-5.6-3.7-10.3-8.8-10.6c-9.3-0.5-17.8-4.9-24-12.5c-6.2-7.5-9.4-17.3-8.9-27.4
		c0.3-5.6-3.7-10.3-8.8-10.6c-5.1-0.3-9.4,4-9.7,9.6c-0.4,8.9,1,17.5,4.1,25.4c-0.7,0.8-1.2,1.7-1.7,2.7
		c-6.3,15.5-17.3,27.5-31.2,34.5c4.4,3.4,6.3,9.9,4.5,15.8c-0.5,1.6-0.9,3.1-1.2,4.7c17.6-7.5,32-21.1,41.2-38.9
		c9.3,10.2,21.5,16.2,34.8,16.9C126.3,323,126.5,323.1,126.6,323.1L126.6,323.1z M193.7,229c-4.9,1.7-7.6,7.4-6,12.7
		c1.6,5.3,6.7,8.3,11.6,6.6c19.1-6.7,38.9-2.7,54.3,8.8v-23.4C235.6,224.2,214.3,221.8,193.7,229z M117.4,210.6
		c1.3,11.8,5.9,22.9,13.3,31.9c9.5,11.5,22.6,18.3,36.8,19.1c0.2,0,0.3,0,0.5,0c4.9,0,9-4.2,9.2-9.6c0.3-5.6-3.7-10.3-8.8-10.6
		c-9.3-0.5-17.8-4.9-24-12.5c-5.7-6.9-8.8-15.7-8.9-25c6.2-3.2,12.1-7.3,17.5-12.4c3.9-3.6,4.4-10,1.1-14.3c-3.3-4.3-9.1-4.8-13-1.2
		c-12.8,11.9-29,17.6-45.7,16c-16.7-1.5-31.8-10.1-42.6-24.1c-0.8-1.1-1.8-1.9-2.9-2.5c0.4,2.1,1,4.2,1.6,6.2
		c2,6.7-0.6,13.9-6.3,16.9c15.4,15.9,35.4,24,55.5,24C106.3,212.6,111.9,211.9,117.4,210.6L117.4,210.6z M165.5,134.7
		c-0.9,11.6,1.5,23.3,6.9,33.6c1.7,3.3,4.8,5.1,8,5.1c1.6,0,3.2-0.4,4.6-1.4c4.4-2.8,5.9-9,3.4-13.8c-4.6-8.8-5.9-19-3.5-28.8
		c2.4-9.8,8.1-18,16.2-23.1c4.4-2.8,5.9-9,3.4-13.8c-2.6-4.8-8.2-6.5-12.6-3.7c-9.7,6.1-17.2,15.3-21.8,26.3
		c-20.9-2.4-37.2-21.8-37.2-45.4c0-1.2-0.2-2.3-0.6-3.4c-0.8,1.5-1.6,3.1-2.3,4.7c-2.2,5.1-7,8.1-12.2,7.7c-1-0.1-1.9-0.1-2.9-0.1
		C118.6,107.3,139.3,130.3,165.5,134.7L165.5,134.7z"/>
	<path class="st0" d="M51.6,321.8c-1.5,0.9-3.1,1.8-4.7,2.6c1.6,1.3,2.9,2.9,3.8,4.8c0,0.1,0.1,0.1,0.1,0.2c0.2,0.5,0.4,1,0.5,1.5
		c0.1,0.3,0.2,0.6,0.3,0.8c0.1,0.4,0.2,0.9,0.3,1.3c0.1,0.4,0.1,0.8,0.2,1.2c0,0.4,0.1,0.7,0.1,1.1c0,0.5,0,1-0.1,1.6
		c0,0.3,0,0.6-0.1,0.9c-0.1,0.8-0.3,1.7-0.5,2.5c-0.5,1.6-0.9,3.1-1.2,4.7c3.4-1.5,6.7-3.2,9.9-5.1
		C56.5,334.4,53.6,328.3,51.6,321.8L51.6,321.8z"/>
	<path class="st0" d="M139.8,404.3c0.8-2.5,1.8-4.9,2.7-7.3c-4.9-5.5-9-11.8-12.2-18.7c-3,6-5.7,12.4-7.9,18.9
		c-4,11.8-6.5,24-7.5,36.3c1,0,2,0,3-0.1c5.1-0.4,9.9,2.6,12.2,7.7c0.9,1.9,1.8,3.8,2.8,5.7C132.9,432.5,135.2,418.1,139.8,404.3
		L139.8,404.3z"/>
	<path class="st3" d="M490.4,181.8h-42.5v-40.4h42.5c11.1,0,20.2,9,20.2,20.2C510.5,172.8,501.5,181.8,490.4,181.8z"/>
	<path class="st4" d="M490.4,161.6h-42.5v20.2h42.5c11.1,0,20.2-9,20.2-20.2c0-3.7-1-7.1-2.7-10.1
		C504.3,157.6,497.8,161.6,490.4,161.6z"/>
	<path class="st3" d="M490.4,276.2h-42.5v-40.4h42.5c11.1,0,20.2,9,20.2,20.2C510.5,267.1,501.5,276.2,490.4,276.2z"/>
	<path class="st4" d="M490.4,256h-42.5v20.2h42.5c11.1,0,20.2-9,20.2-20.2c0-3.7-1-7.1-2.7-10.1C504.3,251.9,497.8,256,490.4,256z"
		/>
	<path class="st3" d="M490.4,370.5h-42.5v-40.4h42.5c11.1,0,20.2,9,20.2,20.2S501.5,370.5,490.4,370.5z"/>
	<path class="st4" d="M490.4,350.4h-42.5v20.2h42.5c11.1,0,20.2-9,20.2-20.2c0-3.7-1-7.1-2.7-10.1
		C504.3,346.3,497.8,350.4,490.4,350.4z"/>
	<path class="st3" d="M305.2,50.7v42.5h-20.2V34.7c0-2.4,2.3-4.2,4.7-3.6c3.7,0.9,7,2.8,9.6,5.4C303,40.1,305.2,45.1,305.2,50.7z"/>
	<path class="st3" d="M399.6,50.7v42.5h-40.4V50.7c0-11.1,9-20.2,20.2-20.2C390.6,30.5,399.6,39.5,399.6,50.7z"/>
	<path class="st3" d="M305,418.8v42.5c0,5.6-2.3,10.6-5.9,14.3c-2.5,2.5-5.7,4.4-9.3,5.3c-2.4,0.6-4.7-1.2-4.7-3.6v-58.5L305,418.8z
		"/>
	<path class="st3" d="M399.6,461.3v-42.5h-40.4v42.5c0,11.1,9,20.2,20.2,20.2C390.6,481.5,399.6,472.4,399.6,461.3z"/>
	<path class="st3" d="M416.9,93.2H285.1v325.5h131.8c17.1,0,31-13.8,31-31V124.2C447.8,107.1,434,93.2,416.9,93.2z"/>
	<path class="st0" d="M406.4,119.1H285.1v273.7h121.4c8.6,0,15.5-6.9,15.5-15.5V134.6C421.9,126.1,415,119.1,406.4,119.1
		L406.4,119.1z"/>
	<g>
		<path class="st1" d="M421.9,134.6v15.5c0-8.6-6.9-15.5-15.5-15.5H285.1v-15.5h121.4C415,119.1,421.9,126.1,421.9,134.6z"/>
		<path class="st1" d="M338.2,317.2h-53.1v-91.3c3,0,6.1,1.4,8.2,4.1l3.9,5.2l27.4,36.6L345,299l1.3,1.8
			C351.4,307.6,346.6,317.2,338.2,317.2L338.2,317.2z"/>
		<path class="st1" d="M385.1,119.1v116.1H285.1v-18.7h81.4v-97.4H385.1z"/>
		<path class="st1" d="M421.9,334.3v18.7H298.6V369h-13.5v-34.7H421.9z"/>
		<path class="st1" d="M334.8,369h18.7v23.8h-18.7V369z"/>
		<path class="st1" d="M343.6,119.1v67.4h-58.6v-18.7H325v-48.7L343.6,119.1z"/>
		<path class="st1" d="M421.9,311h-55.5v-57.6h18.7v38.9h36.8V311z"/>
		<path class="st1" d="M326.1,200.8c0,4.5-3.7,8.2-8.2,8.2s-8.2-3.7-8.2-8.2s3.7-8.2,8.2-8.2C322.5,192.6,326.1,196.2,326.1,200.8z"
			/>
		<path class="st1" d="M377.1,372.6c0,4.5-3.7,8.2-8.2,8.2c-4.5,0-8.2-3.7-8.2-8.2s3.7-8.2,8.2-8.2
			C373.5,364.3,377.1,368,377.1,372.6z"/>
	</g>
	<path class="st5" d="M345,299c-1.8,1.6-4.1,2.6-6.8,2.6h-53.1v-91.3c3,0,6.1,1.3,8.2,4.1l1.6,2.1l14,18.7l27.4,36.6l10.1,13.5
		C349.8,289.9,348.7,295.7,345,299z"/>
	<path class="st6" d="M345,299c-1.8,1.6-4.1,2.6-6.8,2.6h-53.1v-29.8h51.2l10.1,13.5C349.8,289.9,348.7,295.7,345,299L345,299z"/>
	<path class="st4" d="M285.1,418.8H305v25h-19.9V418.8z"/>
	<path class="st4" d="M358.9,418.8h40.4v25h-40.4V418.8z"/>
	<path class="st4" d="M285.1,68.2H305v25h-19.9V68.2z"/>
	<path class="st4" d="M358.9,68.2h40.4v25h-40.4V68.2z"/>
</g>
</svg>
