<?xml version="1.0" encoding="utf-8"?>
<!-- Generator: Adobe Illustrator 23.0.4, SVG Export Plug-In . SVG Version: 6.00 Build 0)  -->
<svg version="1.1"
	 id="Layer_1" xmlns:cc="http://creativecommons.org/ns#" xmlns:dc="http://purl.org/dc/elements/1.1/" xmlns:rdf="http://www.w3.org/1999/02/22-rdf-syntax-ns#"
	 xmlns="http://www.w3.org/2000/svg" xmlns:xlink="http://www.w3.org/1999/xlink" x="0px" y="0px" viewBox="0 0 20 21"
	 style="enable-background:new 0 0 20 21;" xml:space="preserve">
<style type="text/css">
	.st0{fill:#27AE60;}
	.st1{fill:#2ECC71;}
	.st2{fill:#ECF0F1;}
</style>
<g transform="translate(0 -1028.4)">
	<path class="st0" d="M20,1039.4c0,5.5-4.5,10-10,10c-5.5,0-10-4.5-10-10c0-5.5,4.5-10,10-10C15.5,1029.4,20,1033.9,20,1039.4z"/>
	<path class="st1" d="M20,1038.4c0,5.5-4.5,10-10,10c-5.5,0-10-4.5-10-10c0-5.5,4.5-10,10-10C15.5,1028.4,20,1032.9,20,1038.4z"/>
	<path class="st0" d="M14,1035.4l-6,6l-2.5-2.5l-2.1,2.1l2.5,2.5l2,2l0.1,0.1l8.1-8.1L14,1035.4z"/>
	<path class="st2" d="M14,1034.4l-6,6l-2.5-2.5l-2.1,2.1l2.5,2.5l2,2l0.1,0.1l8.1-8.1L14,1034.4z"/>
</g>
</svg>
