<svg id="icons" xmlns="http://www.w3.org/2000/svg" viewBox="0 0 479.91 496"><defs><style>.cls-1{fill:#ccd1d9;}.cls-2{fill:#e6e9ed;}.cls-3{fill:#fff;}.cls-4{fill:#eac6bb;}.cls-5{fill:#d3b1a9;}.cls-6{fill:#656d78;}</style></defs><title>input</title><path class="cls-1" d="M463.92,16H16A16,16,0,0,0,0,32V256a16.06,16.06,0,0,0,16,16H463.91a16.06,16.06,0,0,0,16-16V32a16,16,0,0,0-16-16Z"/><path class="cls-2" d="M463.92,0H16A16,16,0,0,0,0,16V240a16,16,0,0,0,16,16H463.91a16.05,16.05,0,0,0,16-16V16a16,16,0,0,0-16-16Z"/><path class="cls-1" d="M111.92,200h-24a8,8,0,0,0-8,8v24a8,8,0,0,0,8,8h23.91a8,8,0,0,0,8-8l0-8.1a7.5,7.5,0,0,0,.13-1.42V208a8,8,0,0,0-8-8Z"/><path class="cls-1" d="M55.92,200h-24a8,8,0,0,0-8,8v24a8,8,0,0,0,8,8h24a8,8,0,0,0,8-8V208A8,8,0,0,0,55.92,200Z"/><path class="cls-1" d="M391.92,88h-24a8,8,0,0,0-8,8v24a8,8,0,0,0,8,8h24a8,8,0,0,0,8-8V96A8,8,0,0,0,391.92,88Z"/><path class="cls-1" d="M391.92,144h-24a8,8,0,0,0-8,8v24a8,8,0,0,0,8,8h24a8,8,0,0,0,8-8V152A8,8,0,0,0,391.92,144Z"/><path class="cls-1" d="M447.92,200h-24a8,8,0,0,0-8,8v24a8,8,0,0,0,8,8h24a8,8,0,0,0,8-8V208A8,8,0,0,0,447.92,200Z"/><path class="cls-1" d="M391.92,200h-24a8,8,0,0,0-8,8v13.92a8.43,8.43,0,0,0,.05.86,11.21,11.21,0,0,1,.11,1.3V232a8,8,0,0,0,8,8h23.84a8,8,0,0,0,8-8V208A8,8,0,0,0,391.92,200Z"/><circle class="cls-1" cx="435.92" cy="52" r="20"/><circle class="cls-1" cx="43.92" cy="52" r="20"/><circle class="cls-1" cx="99.92" cy="52" r="20"/><path class="cls-1" d="M335.92,200h-192a8,8,0,0,0-8,8v24a8,8,0,0,0,8,8h192a8,8,0,0,0,8-8V208A8,8,0,0,0,335.92,200Z"/><path class="cls-1" d="M31.92,128h24a8,8,0,0,0,8-8V96a8,8,0,0,0-8-8h-24a8,8,0,0,0-8,8v24A8,8,0,0,0,31.92,128Z"/><path class="cls-1" d="M111.92,88h-24a8,8,0,0,0-8,8v24a8,8,0,0,0,8,8h24a8,8,0,0,0,8-8V96A8,8,0,0,0,111.92,88Z"/><path class="cls-1" d="M111.92,144h-80a8,8,0,0,0-8,8v24a8,8,0,0,0,8,8h80a8,8,0,0,0,8-8V152A8,8,0,0,0,111.92,144Z"/><circle class="cls-1" cx="155.92" cy="52" r="20"/><path class="cls-1" d="M143.92,128h24a8,8,0,0,0,8-8V96a8,8,0,0,0-8-8h-24a8,8,0,0,0-8,8v24A8,8,0,0,0,143.92,128Z"/><path class="cls-1" d="M143.92,184h24a8,8,0,0,0,8-8V152a8,8,0,0,0-8-8h-24a8,8,0,0,0-8,8v24A8,8,0,0,0,143.92,184Z"/><circle class="cls-1" cx="211.92" cy="52" r="20"/><circle class="cls-1" cx="267.92" cy="52" r="20"/><path class="cls-1" d="M255.92,128h24a8,8,0,0,0,8-8V96a8,8,0,0,0-8-8h-24a8,8,0,0,0-8,8v24A8,8,0,0,0,255.92,128Z"/><path class="cls-1" d="M199.92,128h24a8,8,0,0,0,8-8V96a8,8,0,0,0-8-8h-24a8,8,0,0,0-8,8v24A8,8,0,0,0,199.92,128Z"/><path class="cls-1" d="M199.92,184h24a8,8,0,0,0,8-8V152a8,8,0,0,0-8-8h-24a8,8,0,0,0-8,8v24A8,8,0,0,0,199.92,184Z"/><path class="cls-1" d="M255.92,184h24a8,8,0,0,0,8-8V152a8,8,0,0,0-8-8h-24a8,8,0,0,0-8,8v24A8,8,0,0,0,255.92,184Z"/><path class="cls-1" d="M335.92,88h-24a8,8,0,0,0-8,8v24a8,8,0,0,0,8,8h24a8,8,0,0,0,8-8V96A8,8,0,0,0,335.92,88Z"/><path class="cls-1" d="M335.92,144h-24a8,8,0,0,0-8,8v24a8,8,0,0,0,8,8h24a8,8,0,0,0,8-8V152A8,8,0,0,0,335.92,144Z"/><path class="cls-1" d="M447.92,88h-24a8,8,0,0,0-8,8v80a8,8,0,0,0,8,8h24a8,8,0,0,0,8-8V96A8,8,0,0,0,447.92,88Z"/><circle class="cls-1" cx="379.92" cy="52" r="20"/><circle class="cls-1" cx="323.92" cy="52" r="20"/><path class="cls-3" d="M111.92,192h-24a8,8,0,0,0-8,8v24a8,8,0,0,0,8,8h23.91a8,8,0,0,0,8-8l0-8.1a7.47,7.47,0,0,0,.13-1.41V200a8,8,0,0,0-8-8Z"/><path class="cls-3" d="M55.92,192h-24a8,8,0,0,0-8,8v24a8,8,0,0,0,8,8h24a8,8,0,0,0,8-8V200A8,8,0,0,0,55.92,192Z"/><path class="cls-3" d="M391.92,80h-24a8,8,0,0,0-8,8v24a8,8,0,0,0,8,8h24a8,8,0,0,0,8-8V88A8,8,0,0,0,391.92,80Z"/><path class="cls-3" d="M391.92,136h-24a8,8,0,0,0-8,8v24a8,8,0,0,0,8,8h24a8,8,0,0,0,8-8V144A8,8,0,0,0,391.92,136Z"/><path class="cls-3" d="M447.92,192h-24a8,8,0,0,0-8,8v24a8,8,0,0,0,8,8h24a8,8,0,0,0,8-8V200A8,8,0,0,0,447.92,192Z"/><path class="cls-3" d="M391.92,192h-24a8,8,0,0,0-8,8v13.92a8.27,8.27,0,0,0,.05.86,11.4,11.4,0,0,1,.11,1.3V224a8,8,0,0,0,8,8h23.84a8,8,0,0,0,8-8V200A8,8,0,0,0,391.92,192Z"/><circle class="cls-3" cx="435.92" cy="44" r="20"/><circle class="cls-3" cx="43.92" cy="44" r="20"/><circle class="cls-3" cx="99.92" cy="44" r="20"/><path class="cls-3" d="M335.92,192h-192a8,8,0,0,0-8,8v24a8,8,0,0,0,8,8h192a8,8,0,0,0,8-8V200A8,8,0,0,0,335.92,192Z"/><path class="cls-3" d="M31.92,120h24a8,8,0,0,0,8-8V88a8,8,0,0,0-8-8h-24a8,8,0,0,0-8,8v24A8,8,0,0,0,31.92,120Z"/><path class="cls-3" d="M111.92,80h-24a8,8,0,0,0-8,8v24a8,8,0,0,0,8,8h24a8,8,0,0,0,8-8V88A8,8,0,0,0,111.92,80Z"/><path class="cls-3" d="M111.92,136h-80a8,8,0,0,0-8,8v24a8,8,0,0,0,8,8h80a8,8,0,0,0,8-8V144A8,8,0,0,0,111.92,136Z"/><circle class="cls-3" cx="155.92" cy="44" r="20"/><path class="cls-3" d="M143.92,120h24a8,8,0,0,0,8-8V88a8,8,0,0,0-8-8h-24a8,8,0,0,0-8,8v24A8,8,0,0,0,143.92,120Z"/><path class="cls-3" d="M143.92,176h24a8,8,0,0,0,8-8V144a8,8,0,0,0-8-8h-24a8,8,0,0,0-8,8v24A8,8,0,0,0,143.92,176Z"/><circle class="cls-3" cx="211.92" cy="44" r="20"/><circle class="cls-3" cx="267.92" cy="44" r="20"/><path class="cls-3" d="M255.92,120h24a8,8,0,0,0,8-8V88a8,8,0,0,0-8-8h-24a8,8,0,0,0-8,8v24A8,8,0,0,0,255.92,120Z"/><path class="cls-3" d="M199.92,120h24a8,8,0,0,0,8-8V88a8,8,0,0,0-8-8h-24a8,8,0,0,0-8,8v24A8,8,0,0,0,199.92,120Z"/><path class="cls-3" d="M199.92,176h24a8,8,0,0,0,8-8V144a8,8,0,0,0-8-8h-24a8,8,0,0,0-8,8v24A8,8,0,0,0,199.92,176Z"/><path class="cls-3" d="M255.92,176h24a8,8,0,0,0,8-8V144a8,8,0,0,0-8-8h-24a8,8,0,0,0-8,8v24A8,8,0,0,0,255.92,176Z"/><path class="cls-3" d="M335.92,80h-24a8,8,0,0,0-8,8v24a8,8,0,0,0,8,8h24a8,8,0,0,0,8-8V88A8,8,0,0,0,335.92,80Z"/><path class="cls-3" d="M335.92,136h-24a8,8,0,0,0-8,8v24a8,8,0,0,0,8,8h24a8,8,0,0,0,8-8V144A8,8,0,0,0,335.92,136Z"/><path class="cls-3" d="M447.92,80h-24a8,8,0,0,0-8,8v80a8,8,0,0,0,8,8h24a8,8,0,0,0,8-8V88A8,8,0,0,0,447.92,80Z"/><circle class="cls-3" cx="379.92" cy="44" r="20"/><circle class="cls-3" cx="323.92" cy="44" r="20"/><path class="cls-4" d="M416,232.08a16,16,0,0,1,16,16v120a64.11,64.11,0,0,1-32,55.45V464H336V422.49h-.08c-9.77-6.24-18-15-24.64-24.81l-51.13-75.19c-4.87-7.2-6.23-16.41,0-22.64s16.23-6,22.64,0L304,320.08v-104a16,16,0,0,1,32,0v-24a16,16,0,0,1,32,0v24a16,16,0,0,1,32,0v32a16,16,0,0,1,16-16Z"/><path class="cls-5" d="M400,304.07V215.9c0,.07,0,.12,0,.17v32a15.89,15.89,0,0,1,8-13.79v61.78A8,8,0,0,1,400,304.07Z"/><path class="cls-5" d="M368,304.07V191.9c0,.07,0,.12,0,.17v24a15.89,15.89,0,0,1,8-13.79v93.78A8,8,0,0,1,368,304.07Z"/><path class="cls-5" d="M344,296.07a8,8,0,0,1-8,8l-.1,0,.1-96.16h0v-8a8,8,0,0,1,7.89,8h.1Z"/><path class="cls-4" d="M143.83,216.08v-24a16,16,0,0,0-32,0v24a16,16,0,0,0-32,0v32a16,16,0,0,0-32,0v120a64.11,64.11,0,0,0,32,55.45V464h64V422.49h.08c9.84-6.24,18.1-15,24.72-24.81l51.05-75.19c4.87-7.2,6.23-16.41,0-22.64s-16.16-6-22.64,0l-21.2,20.23v-104a16,16,0,0,0-32,0Z"/><path class="cls-5" d="M120,296.07a8,8,0,0,1-8,8l-.1,0,.09-96.16h0v-8a8,8,0,0,1,7.89,8h.1Z"/><path class="cls-5" d="M88.06,296.07a8,8,0,0,1-8,8l-.1,0,.1-64.13h0v-8a8,8,0,0,1,7.89,8h.1Z"/><path class="cls-5" d="M144,304.05V215.17a15.87,15.87,0,0,1,7.9-12.87v93.78A8,8,0,0,1,144,304.05Z"/><path class="cls-2" d="M399.92,440a8,8,0,0,1,8,8v16a8,8,0,0,1-8,8h-64a8,8,0,0,1-8-8V448a8,8,0,0,1,8-8Z"/><path class="cls-2" d="M143.92,440a8,8,0,0,1,8,8v16a8,8,0,0,1-8,8h-64a8,8,0,0,1-8-8V448a8,8,0,0,1,8-8Z"/><path class="cls-6" d="M408,464H328a8,8,0,0,0-8,8v24h96V472A8,8,0,0,0,408,464Z"/><path class="cls-6" d="M151.88,464h-80a8,8,0,0,0-8,8v24h96V472A8,8,0,0,0,151.88,464Z"/></svg>