<?xml version="1.0" encoding="utf-8"?>
<!-- Generator: Adobe Illustrator 23.0.4, SVG Export Plug-In . SVG Version: 6.00 Build 0)  -->
<svg version="1.1" id="Layer_1" xmlns="http://www.w3.org/2000/svg" xmlns:xlink="http://www.w3.org/1999/xlink" x="0px" y="0px"
	 viewBox="0 0 512 512" style="enable-background:new 0 0 512 512;" xml:space="preserve">
<style type="text/css">
	.st0{fill:#FFBF9D;}
	.st1{fill:#FFD4BD;}
	.st2{fill:#F8B2B1;}
	.st3{fill:#FABDB6;}
	.st4{fill:#FCE3A0;}
</style>
<path class="st0" d="M386,198.5c-35.9,0-65,29.1-65,65V175c0-35.9-29.1-65-65-65s-65,29.1-65,65v48.5c0-35.9-29.1-65-65-65
	s-65,29.1-65,65v285h390v-245C451,227.6,421.9,198.5,386,198.5z"/>
<path class="st1" d="M126,158.5v165c0,66.8,16.4,129.7,45.3,185H191v-285C191,187.5,161.8,158.5,126,158.5z"/>
<path class="st1" d="M405,201.3l-19-2.8v125c0,66.8,16.4,129.7,45.3,185H451v-245C451,234.2,431.6,209.5,405,201.3z"/>
<path class="st1" d="M320.9,171.8c-0.4-8.9-2.7-17.6-6.6-25.6C303.7,124.8,281.6,110,256,110v213.5c0,66.8,16.4,129.7,45.3,185H321
	V175C321,173.9,321,172.9,320.9,171.8C320.9,171.4,321,172.9,320.9,171.8z"/>
<path class="st0" d="M156,401H96c-4.1,0-7.5,3.4-7.5,7.5s3.4,7.5,7.5,7.5h60c4.1,0,7.5-3.4,7.5-7.5S160.1,401,156,401z"/>
<path class="st0" d="M148.5,431h-45c-4.1,0-7.5,3.4-7.5,7.5s3.4,7.5,7.5,7.5h45c4.1,0,7.5-3.4,7.5-7.5S152.6,431,148.5,431z"/>
<path class="st0" d="M286,352.5h-60c-4.1,0-7.5,3.4-7.5,7.5s3.4,7.5,7.5,7.5h60c4.1,0,7.5-3.4,7.5-7.5S290.1,352.5,286,352.5z"/>
<path class="st0" d="M278.5,382.5h-45c-4.1,0-7.5,3.4-7.5,7.5s3.4,7.5,7.5,7.5h45c4.1,0,7.5-3.4,7.5-7.5S282.6,382.5,278.5,382.5z"
	/>
<path class="st0" d="M416,441h-60c-4.1,0-7.5,3.4-7.5,7.5s3.4,7.5,7.5,7.5h60c4.1,0,7.5-3.4,7.5-7.5S420.1,441,416,441z"/>
<path class="st2" d="M91,243.5v-99.3c0-19.1,15.1-35.2,34.2-35.6c19.7-0.5,35.8,15.4,35.8,35v100c0,11-9,20-20,20h-30
	C100,263.5,91,254.5,91,243.5z"/>
<path class="st3" d="M156.7,255.9c2.7-3.4,4.3-7.7,4.3-12.4v-100c0-17.1-12.3-31.4-28.6-34.4c-5,15.7-7.7,32.3-7.7,49.7
	C124.8,195.1,136.6,228.7,156.7,255.9z"/>
<path class="st2" d="M221,195V95.7c0-19.1,15.1-35.2,34.2-35.6c19.7-0.5,35.8,15.4,35.8,35v100c0,11-9,20-20,20h-30
	C230,215,221,206,221,195z"/>
<path class="st3" d="M286.7,207.4c2.7-3.4,4.3-7.7,4.3-12.4V95c0-17.1-12.3-31.4-28.6-34.4c-5,15.7-7.7,32.3-7.7,49.7
	C254.8,146.6,266.6,180.2,286.7,207.4z"/>
<path class="st2" d="M351,283.5v-99.3c0-19.1,15.1-35.2,34.2-35.6c19.7-0.5,35.8,15.4,35.8,35v100c0,11-9,20-20,20h-30
	C360,303.5,351,294.5,351,283.5z"/>
<path class="st3" d="M416.7,295.9c2.7-3.4,4.3-7.7,4.3-12.4v-100c0-17.1-12.3-31.4-28.6-34.4c-5,15.7-7.7,32.3-7.7,49.7
	C384.8,235.1,396.6,268.7,416.7,295.9z"/>
<g>
	<path class="st4" d="M311.5,4c-4.1,0-7.5,3.4-7.5,7.5v6c0,4.1,3.4,7.5,7.5,7.5c4.1,0,7.5-3.4,7.5-7.5v-6C319,7.4,315.6,4,311.5,4z"
		/>
	<path class="st4" d="M295.5,26h-6c-4.1,0-7.5,3.4-7.5,7.5c0,4.1,3.4,7.5,7.5,7.5h6c4.1,0,7.5-3.4,7.5-7.5
		C303,29.3,299.7,26,295.5,26z"/>
	<path class="st4" d="M333.5,26h-6c-4.1,0-7.5,3.4-7.5,7.5c0,4.1,3.4,7.5,7.5,7.5h6c4.1,0,7.5-3.4,7.5-7.5
		C341,29.3,337.6,26,333.5,26z"/>
	<path class="st4" d="M311.5,42c-4.1,0-7.5,3.4-7.5,7.5v6c0,4.1,3.4,7.5,7.5,7.5c4.1,0,7.5-3.4,7.5-7.5v-6
		C319,45.3,315.6,42,311.5,42z"/>
	<path class="st4" d="M482.5,171c-4.1,0-7.5,3.4-7.5,7.5v6c0,4.1,3.4,7.5,7.5,7.5c4.1,0,7.5-3.4,7.5-7.5v-6
		C490,174.4,486.7,171,482.5,171z"/>
	<path class="st4" d="M466.5,193h-6c-4.1,0-7.5,3.4-7.5,7.5c0,4.1,3.4,7.5,7.5,7.5h6c4.1,0,7.5-3.4,7.5-7.5
		C474,196.3,470.7,193,466.5,193z"/>
	<path class="st4" d="M504.5,193h-6c-4.1,0-7.5,3.4-7.5,7.5c0,4.1,3.4,7.5,7.5,7.5h6c4.1,0,7.5-3.4,7.5-7.5
		C512,196.3,508.6,193,504.5,193z"/>
	<path class="st4" d="M482.5,209c-4.1,0-7.5,3.4-7.5,7.5v6c0,4.1,3.4,7.5,7.5,7.5c4.1,0,7.5-3.4,7.5-7.5v-6
		C490,212.3,486.7,209,482.5,209z"/>
	<path class="st4" d="M29.5,126c-4.1,0-7.5,3.4-7.5,7.5v6c0,4.1,3.4,7.5,7.5,7.5c4.1,0,7.5-3.4,7.5-7.5v-6
		C37,129.4,33.6,126,29.5,126z"/>
	<path class="st4" d="M13.5,148h-6c-4.1,0-7.5,3.4-7.5,7.5c0,4.1,3.4,7.5,7.5,7.5h6c4.1,0,7.5-3.4,7.5-7.5
		C21,151.3,17.6,148,13.5,148z"/>
	<path class="st4" d="M51.5,148h-6c-4.1,0-7.5,3.4-7.5,7.5c0,4.1,3.4,7.5,7.5,7.5h6c4.1,0,7.5-3.4,7.5-7.5
		C59,151.3,55.6,148,51.5,148z"/>
	<path class="st4" d="M29.5,164c-4.1,0-7.5,3.4-7.5,7.5v6c0,4.1,3.4,7.5,7.5,7.5c4.1,0,7.5-3.4,7.5-7.5v-6
		C37,167.3,33.6,164,29.5,164z"/>
</g>
</svg>
