<svg id="Capa_1" enable-background="new 0 0 499.94 499.94" height="512" viewBox="0 0 499.94 499.94" width="512" xmlns="http://www.w3.org/2000/svg"><g><path d="m480.646 14.787c0-7.383-5.985-13.367-13.367-13.367h-434.617c-7.383 0-13.367 5.985-13.367 13.367v139.824h461.352z" fill="#fef0ae"/><g><path d="m19.294 80.903h461.352v73.708h-461.352z" fill="#fee97d"/><path d="m418.835 471.711v13.442c0 7.383-5.985 13.367-13.367 13.367h-310.995c-7.383 0-13.367-5.985-13.367-13.367v-13.442-71.992h337.729z" fill="#dff6fd"/><g><path d="m81.105 399.719h337.729v56.992h-337.729z" fill="#c8effe"/><circle cx="151.038" cy="453.692" fill="#99e6fc" r="19.593"/><path d="m170.631 453.692c0-5.185-2.021-9.89-5.31-13.39h-17.111c1.944-2.424 4.446-4.382 7.32-5.665-1.445-.339-2.943-.538-4.491-.538-11.488 0-20.666 9.887-19.492 21.615.89 8.885 7.918 16.159 16.763 17.382 3.847.532 7.523-.082 10.728-1.514-4.958-1.165-9.213-4.213-11.921-8.345-1.836-2.802.164-6.526 3.514-6.526h19.743c.154-.987.257-1.99.257-3.019z" fill="#62dbfb"/><path d="m452.359 428.344c0 7.383-5.985 13.367-13.367 13.367h-378.043c-7.383 0-13.367-5.985-13.367-13.367v-116.672h404.777z" fill="#f37c7c"/></g><path d="m47.581 311.672h404.777v71.144h-404.777z" fill="#ee6161"/><circle cx="131.397" cy="376.691" fill="#ee6161" r="39.234"/><path d="m131.397 337.458c-21.668 0-39.234 17.566-39.234 39.234 0 2.084.166 4.128.479 6.124h77.51c.313-1.996.479-4.041.479-6.124 0-21.669-17.566-39.234-39.234-39.234z" fill="#e94444"/><path d="m170.631 376.691c0-5.917-1.318-11.524-3.663-16.555h-49.854c3.532-9.815 10.85-17.822 20.209-22.233-2.174-.329-4.407-.482-6.683-.439-21.553.41-38.976 18.624-38.465 40.175.503 21.23 17.871 38.286 39.223 38.286 5.975 0 11.647-1.34 16.715-3.729-9.104-1.379-17.182-5.889-23.103-12.396-5.924-6.511-1.162-16.985 7.641-16.985h37.502c.312-1.995.478-4.04.478-6.124z" fill="#e94444"/><path d="m480.646 349.448c0 7.383-5.985 13.367-13.367 13.367h-434.618c-7.383 0-13.367-5.985-13.367-13.367v-163.933h461.352z" fill="#ade194"/><path d="m19.294 185.515h461.352v97.817h-461.352z" fill="#97da7b"/><circle cx="114.824" cy="285.943" fill="#97da7b" r="51.52"/><path d="m105.847 283.332h60.431c-.447-8.945-3.186-17.281-7.625-24.454h-60.322c5.748-10.629 15.127-19.007 26.472-23.48-3.229-.634-6.563-.974-9.978-.974-29.663 0-53.471 25.069-51.393 55.177 1.728 25.043 21.69 45.409 46.692 47.652 8.379.752 16.417-.54 23.627-3.383-18.607-3.653-33.67-17.31-39.248-35.147-2.388-7.634 3.346-15.391 11.344-15.391z" fill="#80d261"/><circle cx="114.824" cy="78.015" fill="#fee97d" r="51.52"/><path d="m166.259 80.903h-56.709c-9.047 0-15.484-9.007-12.324-17.484 6.177-16.569 20.66-29.104 38.372-32.564-7.33-3.23-15.572-4.814-24.221-4.247-25.48 1.671-46.142 22.193-47.941 47.665-2.129 30.145 21.696 55.262 51.388 55.262 3.399 0 6.718-.338 9.933-.966-11.508-5.071-20.804-14.23-26.061-25.634h61.21c3.654-6.595 5.913-14.069 6.353-22.032z" fill="#fedf30"/><path d="m486.573 263.332h-473.206c-7.382 0-13.367-5.985-13.367-13.368v-135.694c0-7.383 5.985-13.367 13.367-13.367h473.206c7.383 0 13.367 5.985 13.367 13.367v135.694c0 7.383-5.985 13.368-13.367 13.368z" fill="#dff6fd"/><path d="m77.902 249.964v-135.693c0-7.383 5.985-13.367 13.367-13.367h-77.902c-7.382-.001-13.367 5.984-13.367 13.367v135.694c0 7.383 5.985 13.367 13.367 13.367h77.902c-7.382 0-13.367-5.985-13.367-13.368z" fill="#c8effe"/><circle cx="103.521" cy="182.117" fill="#99e6fc" r="53.574"/><path d="m84.792 182.117c0-23.486 15.12-43.428 36.151-50.661-5.464-1.879-11.321-2.913-17.423-2.913-29.588 0-53.574 23.986-53.574 53.574s23.986 53.574 53.574 53.574c6.102 0 11.958-1.034 17.423-2.913-21.031-7.232-36.151-27.174-36.151-50.661z" fill="#62dbfb"/><g><path d="m214.373 168.65h-9.845c-4.142 0-7.5-3.358-7.5-7.5s3.358-7.5 7.5-7.5h9.845c4.142 0 7.5 3.358 7.5 7.5s-3.357 7.5-7.5 7.5z" fill="#c8effe"/></g><g><path d="m452.934 168.65h-202.964c-4.142 0-7.5-3.358-7.5-7.5s3.358-7.5 7.5-7.5h202.964c4.143 0 7.5 3.358 7.5 7.5s-3.357 7.5-7.5 7.5z" fill="#c8effe"/></g><g><path d="m452.934 213.578h-248.406c-4.142 0-7.5-3.358-7.5-7.5s3.358-7.5 7.5-7.5h248.406c4.143 0 7.5 3.358 7.5 7.5s-3.357 7.5-7.5 7.5z" fill="#c8effe"/></g><g><path d="m440.757 56.415h-236.229c-4.142 0-7.5-3.358-7.5-7.5s3.358-7.5 7.5-7.5h236.229c4.143 0 7.5 3.358 7.5 7.5s-3.357 7.5-7.5 7.5z" fill="#fee97d"/></g><g><path d="m440.757 322.82h-236.229c-4.142 0-7.5-3.358-7.5-7.5s3.358-7.5 7.5-7.5h236.229c4.143 0 7.5 3.358 7.5 7.5s-3.357 7.5-7.5 7.5z" fill="#97da7b"/></g><g><path d="m412.048 412.641h-207.52c-4.142 0-7.5-3.358-7.5-7.5s3.358-7.5 7.5-7.5h207.52c4.143 0 7.5 3.358 7.5 7.5s-3.357 7.5-7.5 7.5z" fill="#ee6161"/></g><g><path d="m377.016 477.587h-172.488c-4.142 0-7.5-3.358-7.5-7.5s3.358-7.5 7.5-7.5h172.488c4.143 0 7.5 3.358 7.5 7.5s-3.357 7.5-7.5 7.5z" fill="#c8effe"/></g></g></g></svg>