<?xml version="1.0" encoding="utf-8"?>
<!-- Generator: Adobe Illustrator 23.0.4, SVG Export Plug-In . SVG Version: 6.00 Build 0)  -->
<svg version="1.1" id="Layer_1" xmlns="http://www.w3.org/2000/svg" xmlns:xlink="http://www.w3.org/1999/xlink" x="0px" y="0px"
	 viewBox="0 0 400 400" style="enable-background:new 0 0 400 400;" xml:space="preserve">
<style type="text/css">
	.st0{fill:#EBEBEB;}
	.st1{fill:#BDBDBD;stroke:#BDBDBD;stroke-miterlimit:10;}
	.st2{fill:#565562;stroke:#404151;stroke-width:0.5;stroke-miterlimit:10;}
	.st3{fill:#BDBDBD;}
	.st4{fill:#A8A7A8;}
	.st5{fill:#BDBDBD;stroke:#A8A7A8;stroke-width:0.75;stroke-miterlimit:10;}
	.st6{fill:#FDC113;}
	.st7{fill:#353535;}
</style>
<title>safe</title>
<path class="st0" d="M11,31.5h378c6.1,0,11,4.9,11,11v258.4c0,6.1-4.9,11-11,11H11c-6.1,0-11-4.9-11-11V42.5
	C0,36.5,4.9,31.5,11,31.5z"/>
<path class="st1" d="M13.4,32.7h373.3c6.1,0,11,4.9,11,11v254.9c0,6.1-4.9,11-11,11H13.4c-6.1,0-11-4.9-11-11V43.7
	C2.4,37.6,7.3,32.7,13.4,32.7z"/>
<path class="st2" d="M397.6,43.1v229.3H2.4V43.1c0-5.8,4.7-10.4,10.4-10.4h374.4C393,32.7,397.6,37.3,397.6,43.1L397.6,43.1z"/>
<circle class="st2" cx="200" cy="291.4" r="6.7"/>
<rect x="142.2" y="309.6" class="st3" width="115.5" height="45.1"/>
<rect x="143.3" y="310.1" class="st4" width="113.5" height="1.4"/>
<rect x="143.3" y="353.3" class="st4" width="113.5" height="1.4"/>
<path class="st5" d="M269.4,359v9l-138.9,0.5V359c0-2.8,2.2-5,5-5h128.9C267.2,354,269.4,356.2,269.4,359z"/>
<path class="st1" d="M200,77.2c-22.5,0-40.8,18.3-40.8,40.8v25.1c0,1.7,1.4,3.1,3.1,3.1h0h12.6c1.7,0,3.1-1.4,3.1-3.1c0,0,0,0,0,0
	V118c0-12.1,9.8-22,22-22s22,9.8,22,22v25.1c0,1.7,1.4,3.1,3.1,3.1h12.6c1.7,0,3.1-1.4,3.1-3.1v0V118
	C240.8,95.5,222.5,77.2,200,77.2z"/>
<path class="st6" d="M162.3,140h75.4c8.7,0,15.7,7,15.7,15.7v56.5c0,8.7-7,15.7-15.7,15.7h-75.4c-8.7,0-15.7-7-15.7-15.7v-56.5
	C146.6,147,153.6,140,162.3,140z"/>
<path class="st7" d="M215.7,174.5c0-8.7-7-15.7-15.6-15.8c-8.7,0-15.7,7-15.8,15.6c0,6,3.4,11.5,8.7,14.1l-2.4,17
	c-0.2,1.7,0.9,3.3,2.7,3.5c0,0,0,0,0,0c0.1,0,0.3,0,0.4,0h12.6c1.7,0,3.1-1.3,3.2-3.1c0,0,0,0,0,0c0-0.2,0-0.3,0-0.5l-2.4-17
	C212.3,185.9,215.7,180.5,215.7,174.5z"/>
</svg>
