<svg id="Layer_3" enable-background="new 0 0 64 64" height="512" viewBox="0 0 64 64" width="512" xmlns="http://www.w3.org/2000/svg"><g><path d="m57 25.99c-.845-.039-1.741-.236-2.643-.582-1.351-.519-2.861.22-3.323 1.591-2.009 5.961-3.034 12.209-3.034 18.499 0 5.638.823 11.245 2.443 16.645l.257.858h-37.4l.257-.858c1.62-5.4 2.443-11.007 2.443-16.645 0-6.29-1.025-12.538-3.033-18.499-.462-1.371-1.972-2.11-3.323-1.591-.903.346-1.799.543-2.644.582l-4.981-5.201c.162-2.166 1.339-4.633 3.387-6.681 2.691-2.691 6.101-3.871 8.606-3.229.066-2.704 2.268-4.879 4.988-4.879 1.024 0 1.975.31 2.768.839.976-.584 2.005-1.088 3.078-1.503.693-.268 1.285-.745 1.641-1.397l.143-.261c.243-.445.37-.943.37-1.449v-1.229h10v1.233c0 .504.126.999.367 1.441l.142.26c.356.653.948 1.131 1.641 1.4 1.075.416 2.105.921 3.082 1.505.793-.529 1.744-.839 2.768-.839 2.72 0 4.922 2.175 4.988 4.879 2.504-.643 5.915.538 8.606 3.229 2.048 2.048 3.225 4.515 3.387 6.681z" fill="#fadfb2"/><g><path d="m25 11h-2c0-.844-.26-1.65-.751-2.333l1.624-1.167c.737 1.023 1.127 2.234 1.127 3.5z" fill="#efbe9a"/></g><g><path d="m40.999 11h-2c0-1.332.428-2.593 1.236-3.647l1.587 1.217c-.538.701-.823 1.542-.823 2.43z" fill="#efbe9a"/></g><path d="m36.5 18h-1.5v-2h-6v2h-1.5c-.828 0-1.5.672-1.5 1.5 0 .828.672 1.5 1.5 1.5h1.5v2h6v-2h1.5c.828 0 1.5-.672 1.5-1.5 0-.828-.672-1.5-1.5-1.5z" fill="#c1c8d1"/><g><path d="m36.5 25h-1.5v-2h-6v2h-1.5c-.828 0-1.5.672-1.5 1.5 0 .828.672 1.5 1.5 1.5h1.5v2h6v-2h1.5c.828 0 1.5-.672 1.5-1.5 0-.828-.672-1.5-1.5-1.5z" fill="#a8b0bc"/></g><g><path d="m36.5 32h-1.5v-2h-6v2h-1.5c-.828 0-1.5.672-1.5 1.5 0 .828.672 1.5 1.5 1.5h1.5v2h6v-2h1.5c.828 0 1.5-.672 1.5-1.5 0-.828-.672-1.5-1.5-1.5z" fill="#c1c8d1"/></g><path d="m36.5 39h-1.5v-2h-6v2h-1.5c-.828 0-1.5.672-1.5 1.5 0 .828.672 1.5 1.5 1.5h1.5v2h6v-2h1.5c.828 0 1.5-.672 1.5-1.5 0-.828-.672-1.5-1.5-1.5z" fill="#a8b0bc"/><path d="m36.5 46h-1.5v-2h-6v2h-1.5c-.828 0-1.5.672-1.5 1.5 0 .828.672 1.5 1.5 1.5h1.5v2h6v-2h1.5c.828 0 1.5-.672 1.5-1.5 0-.828-.672-1.5-1.5-1.5z" fill="#c1c8d1"/><path d="m36.5 53h-1.5v-2h-6v2h-1.5c-.828 0-1.5.672-1.5 1.5 0 .828.672 1.5 1.5 1.5h1.5v2h6v-2h1.5c.828 0 1.5-.672 1.5-1.5 0-.828-.672-1.5-1.5-1.5z" fill="#a8b0bc"/><path d="m29 16h6l-1-4h-4z" fill="#758190"/><g><path d="m31 20h2v3h-2z" fill="#758190"/></g><g><path d="m31 27h2v3h-2z" fill="#c1c8d1"/></g><g><path d="m31 34h2v3h-2z" fill="#758190"/></g><g><path d="m31 41h2v3h-2z" fill="#c1c8d1"/></g><g><path d="m31 48h2v3h-2z" fill="#758190"/></g><g><path d="m31 55h2v3h-2z" fill="#c1c8d1"/></g><path d="m32.971 12h-2.971l-1 4h1.99c1.122-1.055 1.85-2.451 1.981-4z" fill="#8892a0"/></g></svg>